<svg width="159" height="27" viewBox="0 0 159 27" fill="none" xmlns="http://www.w3.org/2000/svg">
<path d="M39.368 7.514H34.088V5.6H46.826V7.514H41.546V21H39.368V7.514ZM50.6588 11.298C51.0255 10.6233 51.5681 10.11 52.2868 9.758C53.0055 9.406 53.8781 9.23 54.9048 9.23V11.276C54.7875 11.2613 54.6261 11.254 54.4208 11.254C53.2768 11.254 52.3748 11.5987 51.7148 12.288C51.0695 12.9627 50.7468 13.9307 50.7468 15.192V21H48.6348V9.34H50.6588V11.298ZM61.7324 9.23C63.3457 9.23 64.5777 9.626 65.4284 10.418C66.2937 11.21 66.7264 12.3907 66.7264 13.96V21H64.7244V19.46C64.3724 20.0027 63.8664 20.4207 63.2064 20.714C62.561 20.9927 61.791 21.132 60.8964 21.132C59.591 21.132 58.5424 20.8167 57.7504 20.186C56.973 19.5553 56.5844 18.7267 56.5844 17.7C56.5844 16.6733 56.9584 15.852 57.7064 15.236C58.4544 14.6053 59.6424 14.29 61.2704 14.29H64.6144V13.872C64.6144 12.9627 64.3504 12.266 63.8224 11.782C63.2944 11.298 62.517 11.056 61.4904 11.056C60.801 11.056 60.1264 11.1733 59.4664 11.408C58.8064 11.628 58.249 11.9287 57.7944 12.31L56.9144 10.726C57.5157 10.242 58.2344 9.87533 59.0704 9.626C59.9064 9.362 60.7937 9.23 61.7324 9.23ZM61.2484 19.504C62.055 19.504 62.7517 19.328 63.3384 18.976C63.925 18.6093 64.3504 18.096 64.6144 17.436V15.808H61.3584C59.569 15.808 58.6744 16.4093 58.6744 17.612C58.6744 18.1987 58.9017 18.6607 59.3564 18.998C59.811 19.3353 60.4417 19.504 61.2484 19.504ZM80.738 9.34L75.634 21H73.478L68.374 9.34H70.574L74.578 18.69L78.67 9.34H80.738ZM92.9248 15.236C92.9248 15.3973 92.9101 15.61 92.8808 15.874H83.4208C83.5528 16.9007 84.0001 17.7293 84.7628 18.36C85.5401 18.976 86.5008 19.284 87.6448 19.284C89.0381 19.284 90.1601 18.8147 91.0108 17.876L92.1768 19.24C91.6488 19.856 90.9888 20.3253 90.1968 20.648C89.4194 20.9707 88.5468 21.132 87.5788 21.132C86.3468 21.132 85.2541 20.8827 84.3008 20.384C83.3474 19.8707 82.6068 19.1593 82.0788 18.25C81.5654 17.3407 81.3088 16.314 81.3088 15.17C81.3088 14.0407 81.5581 13.0213 82.0568 12.112C82.5701 11.2027 83.2668 10.4987 84.1468 10C85.0414 9.48667 86.0461 9.23 87.1608 9.23C88.2754 9.23 89.2654 9.48667 90.1308 10C91.0108 10.4987 91.6928 11.2027 92.1768 12.112C92.6754 13.0213 92.9248 14.0627 92.9248 15.236ZM87.1608 11.012C86.1488 11.012 85.2981 11.32 84.6088 11.936C83.9341 12.552 83.5381 13.3587 83.4208 14.356H90.9008C90.7834 13.3733 90.3801 12.574 89.6908 11.958C89.0161 11.3273 88.1728 11.012 87.1608 11.012ZM95.8575 4.676H97.9695V21H95.8575V4.676ZM112.672 13.014C113.567 13.2633 114.271 13.718 114.784 14.378C115.297 15.0233 115.554 15.8447 115.554 16.842C115.554 18.1767 115.048 19.2033 114.036 19.922C113.039 20.6407 111.579 21 109.658 21H102.31V5.6H109.218C110.978 5.6 112.335 5.952 113.288 6.656C114.256 7.36 114.74 8.33533 114.74 9.582C114.74 10.3887 114.549 11.0853 114.168 11.672C113.801 12.2587 113.303 12.706 112.672 13.014ZM104.51 7.382V12.31H109.02C110.149 12.31 111.015 12.1047 111.616 11.694C112.232 11.2687 112.54 10.6527 112.54 9.846C112.54 9.03933 112.232 8.43067 111.616 8.02C111.015 7.59467 110.149 7.382 109.02 7.382H104.51ZM109.57 19.218C110.817 19.218 111.755 19.0127 112.386 18.602C113.017 18.1913 113.332 17.546 113.332 16.666C113.332 14.95 112.078 14.092 109.57 14.092H104.51V19.218H109.57ZM123.646 21.132C122.488 21.132 121.446 20.8753 120.522 20.362C119.598 19.8487 118.872 19.1447 118.344 18.25C117.831 17.3407 117.574 16.314 117.574 15.17C117.574 14.026 117.831 13.0067 118.344 12.112C118.872 11.2027 119.598 10.4987 120.522 10C121.446 9.48667 122.488 9.23 123.646 9.23C124.805 9.23 125.839 9.48667 126.748 10C127.672 10.4987 128.391 11.2027 128.904 12.112C129.432 13.0067 129.696 14.026 129.696 15.17C129.696 16.314 129.432 17.3407 128.904 18.25C128.391 19.1447 127.672 19.8487 126.748 20.362C125.839 20.8753 124.805 21.132 123.646 21.132ZM123.646 19.284C124.394 19.284 125.062 19.1153 125.648 18.778C126.25 18.426 126.719 17.942 127.056 17.326C127.394 16.6953 127.562 15.9767 127.562 15.17C127.562 14.3633 127.394 13.652 127.056 13.036C126.719 12.4053 126.25 11.9213 125.648 11.584C125.062 11.2467 124.394 11.078 123.646 11.078C122.898 11.078 122.224 11.2467 121.622 11.584C121.036 11.9213 120.566 12.4053 120.214 13.036C119.877 13.652 119.708 14.3633 119.708 15.17C119.708 15.9767 119.877 16.6953 120.214 17.326C120.566 17.942 121.036 18.426 121.622 18.778C122.224 19.1153 122.898 19.284 123.646 19.284ZM137.611 21.132C136.453 21.132 135.411 20.8753 134.487 20.362C133.563 19.8487 132.837 19.1447 132.309 18.25C131.796 17.3407 131.539 16.314 131.539 15.17C131.539 14.026 131.796 13.0067 132.309 12.112C132.837 11.2027 133.563 10.4987 134.487 10C135.411 9.48667 136.453 9.23 137.611 9.23C138.77 9.23 139.804 9.48667 140.713 10C141.637 10.4987 142.356 11.2027 142.869 12.112C143.397 13.0067 143.661 14.026 143.661 15.17C143.661 16.314 143.397 17.3407 142.869 18.25C142.356 19.1447 141.637 19.8487 140.713 20.362C139.804 20.8753 138.77 21.132 137.611 21.132ZM137.611 19.284C138.359 19.284 139.027 19.1153 139.613 18.778C140.215 18.426 140.684 17.942 141.021 17.326C141.359 16.6953 141.527 15.9767 141.527 15.17C141.527 14.3633 141.359 13.652 141.021 13.036C140.684 12.4053 140.215 11.9213 139.613 11.584C139.027 11.2467 138.359 11.078 137.611 11.078C136.863 11.078 136.189 11.2467 135.587 11.584C135.001 11.9213 134.531 12.4053 134.179 13.036C133.842 13.652 133.673 14.3633 133.673 15.17C133.673 15.9767 133.842 16.6953 134.179 17.326C134.531 17.942 135.001 18.426 135.587 18.778C136.189 19.1153 136.863 19.284 137.611 19.284ZM151.114 15.566L148.694 17.81V21H146.582V4.676H148.694V15.148L155.052 9.34H157.604L152.698 14.158L158.088 21H155.492L151.114 15.566Z" fill="white"/>
<path d="M21.3415 21.5861H3.65804C2.19216 21.5861 1 20.394 1 18.9281V8.14834C1 6.68246 2.19216 5.4903 3.65804 5.4903H7.26636L7.5822 4.42483C7.7111 3.84182 8.24408 3.41389 8.87093 3.41389H16.1291C16.7383 3.41389 17.2774 3.83961 17.4201 4.43014L17.4285 4.46647L17.7164 5.49023H21.342C22.8078 5.49023 24 6.68239 24 8.14827V18.9279C23.9996 20.394 22.807 21.5861 21.3415 21.5861ZM3.65804 6.37633C2.68074 6.37633 1.88604 7.17111 1.88604 8.14834V18.928C1.88604 19.9053 2.68081 20.7 3.65804 20.7H21.3415C22.3188 20.7 23.1136 19.9052 23.1136 18.928V8.14834C23.1136 7.17104 22.3188 6.37633 21.3415 6.37633H17.0453L16.5602 4.64638C16.5155 4.44524 16.3343 4.29952 16.1287 4.29952H8.87045C8.6618 4.29952 8.48457 4.44214 8.43894 4.64686L7.92686 6.37633H3.65804V6.37633ZM12.5005 18.9081C9.39991 18.9081 6.87738 16.386 6.87738 13.2859C6.87738 10.1853 9.39984 7.66327 12.5005 7.66327C15.6002 7.66327 18.1223 10.1857 18.1223 13.2859C18.1222 16.3856 15.6002 18.9081 12.5005 18.9081ZM12.5005 8.54883C9.88849 8.54883 7.76342 10.6735 7.76342 13.2855C7.76342 15.8975 9.88856 18.0216 12.5005 18.0216C15.112 18.0216 17.2362 15.897 17.2362 13.2855C17.2362 10.6735 15.1115 8.54883 12.5005 8.54883ZM20.7696 8.02075C20.3178 8.02075 19.9522 8.38711 19.9522 8.83813C19.9522 9.28955 20.3177 9.65544 20.7696 9.65544C21.2211 9.65544 21.5865 9.28949 21.5865 8.83813C21.5861 8.38711 21.2206 8.02075 20.7696 8.02075Z" fill="white" stroke="white"/>
</svg>
